<svg xmlns="http://www.w3.org/2000/svg" viewBox="0 0 512 512">
  <rect width="512" height="512" rx="128" fill="#0d1816"/>
  <path d="M142 164c0-35 29-64 64-64h100c35 0 64 29 64 64v15h22c28 0 50 22 50 50v119c0 35-29 64-64 64H198c-50 0-90-40-90-90V195c0-17 14-31 31-31h3Z" fill="#60e0a6"/>
  <path d="M142 164h164c35 0 64 29 64 64v140H198c-31 0-56-25-56-56V164Z" fill="#2ecf8b"/>
  <path d="M108 195c0-17 14-31 31-31h175c31 0 56 25 56 56v19H180c-40 0-72-20-72-44Z" fill="#8af0c1"/>
  <rect x="302" y="248" width="140" height="94" rx="36" fill="#07100e"/>
  <circle cx="350" cy="295" r="14" fill="#60e0a6"/>
</svg>
